<svg xmlns="http://www.w3.org/2000/svg" width="800" height="600" viewBox="0 0 800 600">
  <defs>
    <linearGradient id="bg" x1="0%" y1="0%" x2="100%" y2="100%">
      <stop offset="0%" style="stop-color:#1a1a2e"/>
      <stop offset="100%" style="stop-color:#0f1729"/>
    </linearGradient>
  </defs>
  <rect width="800" height="600" fill="url(#bg)"/>
  <!-- Building silhouettes -->
  <rect x="80" y="200" width="120" height="300" rx="4" fill="#1e2640" stroke="#C9A84C" stroke-width="1" opacity="0.5"/>
  <rect x="220" y="140" width="140" height="360" rx="4" fill="#1e2640" stroke="#C9A84C" stroke-width="1" opacity="0.6"/>
  <rect x="380" y="100" width="160" height="400" rx="4" fill="#1e2640" stroke="#C9A84C" stroke-width="1" opacity="0.7"/>
  <rect x="560" y="180" width="130" height="320" rx="4" fill="#1e2640" stroke="#C9A84C" stroke-width="1" opacity="0.5"/>
  <!-- Windows grid on main building -->
  <g fill="#C9A84C" opacity="0.3">
    <rect x="400" y="130" width="20" height="16" rx="2"/>
    <rect x="430" y="130" width="20" height="16" rx="2"/>
    <rect x="460" y="130" width="20" height="16" rx="2"/>
    <rect x="490" y="130" width="20" height="16" rx="2"/>
    <rect x="400" y="160" width="20" height="16" rx="2"/>
    <rect x="430" y="160" width="20" height="16" rx="2"/>
    <rect x="460" y="160" width="20" height="16" rx="2"/>
    <rect x="490" y="160" width="20" height="16" rx="2"/>
    <rect x="400" y="190" width="20" height="16" rx="2"/>
    <rect x="430" y="190" width="20" height="16" rx="2"/>
    <rect x="460" y="190" width="20" height="16" rx="2"/>
    <rect x="490" y="190" width="20" height="16" rx="2"/>
    <rect x="400" y="220" width="20" height="16" rx="2"/>
    <rect x="430" y="220" width="20" height="16" rx="2"/>
    <rect x="460" y="220" width="20" height="16" rx="2"/>
    <rect x="490" y="220" width="20" height="16" rx="2"/>
    <rect x="400" y="250" width="20" height="16" rx="2"/>
    <rect x="430" y="250" width="20" height="16" rx="2"/>
    <rect x="460" y="250" width="20" height="16" rx="2"/>
    <rect x="490" y="250" width="20" height="16" rx="2"/>
  </g>
  <!-- Briefcase icon centered -->
  <g transform="translate(330, 320)">
    <rect x="0" y="30" width="140" height="100" rx="12" fill="none" stroke="#C9A84C" stroke-width="3" opacity="0.8"/>
    <path d="M40 30 L40 15 A15 15 0 0 1 55 0 L85 0 A15 15 0 0 1 100 15 L100 30" fill="none" stroke="#C9A84C" stroke-width="3" opacity="0.8"/>
    <line x1="0" y1="70" x2="140" y2="70" stroke="#C9A84C" stroke-width="2" opacity="0.5"/>
    <rect x="60" y="62" width="20" height="16" rx="4" fill="#C9A84C" opacity="0.6"/>
  </g>
  <!-- Ground line -->
  <rect x="0" y="498" width="800" height="2" fill="#C9A84C" opacity="0.2"/>
</svg>